<mxfile host="app.diagrams.net" agent="Mozilla/5.0 (Windows NT 10.0; Win64; x64) AppleWebKit/537.36 (KHTML, like Gecko) Chrome/134.0.0.0 Safari/537.36 Edg/134.0.0.0" version="26.1.0">
  <diagram name="Страница — 1" id="VfAB-sunqAya4R3P8yzm">
    <mxGraphModel dx="2564" dy="1102" grid="1" gridSize="10" guides="1" tooltips="1" connect="1" arrows="1" fold="1" page="1" pageScale="1" pageWidth="827" pageHeight="1169" math="0" shadow="0">
      <root>
        <mxCell id="0" />
        <mxCell id="1" parent="0" />
        <mxCell id="as861CdX3eIc4DemPp-k-1" value="Клиент" style="rounded=0;whiteSpace=wrap;html=1;" vertex="1" parent="1">
          <mxGeometry x="340" y="50" width="120" height="60" as="geometry" />
        </mxCell>
        <mxCell id="as861CdX3eIc4DemPp-k-2" value="Создание заказа" style="rounded=1;whiteSpace=wrap;html=1;" vertex="1" parent="1">
          <mxGeometry x="340" y="170" width="120" height="60" as="geometry" />
        </mxCell>
        <mxCell id="as861CdX3eIc4DemPp-k-3" value="Обработка заказа" style="rounded=1;whiteSpace=wrap;html=1;" vertex="1" parent="1">
          <mxGeometry x="222.5" y="280" width="355" height="60" as="geometry" />
        </mxCell>
        <mxCell id="as861CdX3eIc4DemPp-k-4" value="БД заказов" style="rounded=0;whiteSpace=wrap;html=1;align=right;" vertex="1" parent="1">
          <mxGeometry x="20" y="280" width="120" height="60" as="geometry" />
        </mxCell>
        <mxCell id="as861CdX3eIc4DemPp-k-6" value="" style="endArrow=none;html=1;rounded=0;exitX=0.25;exitY=1;exitDx=0;exitDy=0;entryX=0.25;entryY=0;entryDx=0;entryDy=0;" edge="1" parent="1" source="as861CdX3eIc4DemPp-k-4" target="as861CdX3eIc4DemPp-k-4">
          <mxGeometry width="50" height="50" relative="1" as="geometry">
            <mxPoint x="390" y="370" as="sourcePoint" />
            <mxPoint x="440" y="320" as="targetPoint" />
          </mxGeometry>
        </mxCell>
        <mxCell id="as861CdX3eIc4DemPp-k-7" value="Управление складом" style="rounded=1;whiteSpace=wrap;html=1;" vertex="1" parent="1">
          <mxGeometry x="275" y="450" width="250" height="60" as="geometry" />
        </mxCell>
        <mxCell id="as861CdX3eIc4DemPp-k-8" value="БД продуктов" style="rounded=0;whiteSpace=wrap;html=1;align=right;" vertex="1" parent="1">
          <mxGeometry x="340" y="560" width="120" height="60" as="geometry" />
        </mxCell>
        <mxCell id="as861CdX3eIc4DemPp-k-9" value="" style="endArrow=none;html=1;rounded=0;exitX=0.25;exitY=1;exitDx=0;exitDy=0;entryX=0.25;entryY=0;entryDx=0;entryDy=0;" edge="1" parent="1" source="as861CdX3eIc4DemPp-k-8" target="as861CdX3eIc4DemPp-k-8">
          <mxGeometry width="50" height="50" relative="1" as="geometry">
            <mxPoint x="390" y="370" as="sourcePoint" />
            <mxPoint x="440" y="320" as="targetPoint" />
          </mxGeometry>
        </mxCell>
        <mxCell id="as861CdX3eIc4DemPp-k-10" value="Кухня" style="rounded=0;whiteSpace=wrap;html=1;" vertex="1" parent="1">
          <mxGeometry x="577.5" y="525" width="120" height="60" as="geometry" />
        </mxCell>
        <mxCell id="as861CdX3eIc4DemPp-k-11" value="Формирование отчетов" style="rounded=1;whiteSpace=wrap;html=1;" vertex="1" parent="1">
          <mxGeometry x="410" y="700" width="180" height="60" as="geometry" />
        </mxCell>
        <mxCell id="as861CdX3eIc4DemPp-k-12" value="БД отчетов&amp;nbsp;" style="rounded=0;whiteSpace=wrap;html=1;align=right;" vertex="1" parent="1">
          <mxGeometry x="440" y="810" width="120" height="60" as="geometry" />
        </mxCell>
        <mxCell id="as861CdX3eIc4DemPp-k-13" value="" style="endArrow=none;html=1;rounded=0;exitX=0.25;exitY=1;exitDx=0;exitDy=0;entryX=0.25;entryY=0;entryDx=0;entryDy=0;" edge="1" parent="1" source="as861CdX3eIc4DemPp-k-12" target="as861CdX3eIc4DemPp-k-12">
          <mxGeometry width="50" height="50" relative="1" as="geometry">
            <mxPoint x="390" y="680" as="sourcePoint" />
            <mxPoint x="440" y="630" as="targetPoint" />
          </mxGeometry>
        </mxCell>
        <mxCell id="as861CdX3eIc4DemPp-k-14" value="Администратор" style="rounded=0;whiteSpace=wrap;html=1;" vertex="1" parent="1">
          <mxGeometry x="750" y="820" width="120" height="60" as="geometry" />
        </mxCell>
        <mxCell id="as861CdX3eIc4DemPp-k-15" value="Интеграция с платежными средствами" style="rounded=1;whiteSpace=wrap;html=1;" vertex="1" parent="1">
          <mxGeometry x="-70" y="450" width="230" height="60" as="geometry" />
        </mxCell>
        <mxCell id="as861CdX3eIc4DemPp-k-16" value="" style="endArrow=classic;html=1;rounded=0;exitX=0.5;exitY=1;exitDx=0;exitDy=0;" edge="1" parent="1" source="as861CdX3eIc4DemPp-k-1">
          <mxGeometry width="50" height="50" relative="1" as="geometry">
            <mxPoint x="350" y="340" as="sourcePoint" />
            <mxPoint x="400" y="170" as="targetPoint" />
          </mxGeometry>
        </mxCell>
        <mxCell id="as861CdX3eIc4DemPp-k-17" value="" style="endArrow=classic;html=1;rounded=0;entryX=0.5;entryY=0;entryDx=0;entryDy=0;exitX=0.5;exitY=1;exitDx=0;exitDy=0;" edge="1" parent="1" source="as861CdX3eIc4DemPp-k-2" target="as861CdX3eIc4DemPp-k-3">
          <mxGeometry width="50" height="50" relative="1" as="geometry">
            <mxPoint x="410" y="240" as="sourcePoint" />
            <mxPoint x="399" y="290" as="targetPoint" />
          </mxGeometry>
        </mxCell>
        <mxCell id="as861CdX3eIc4DemPp-k-19" value="" style="endArrow=classic;html=1;rounded=0;entryX=0.5;entryY=0;entryDx=0;entryDy=0;exitX=0;exitY=0.5;exitDx=0;exitDy=0;" edge="1" parent="1" source="as861CdX3eIc4DemPp-k-2" target="as861CdX3eIc4DemPp-k-4">
          <mxGeometry width="50" height="50" relative="1" as="geometry">
            <mxPoint x="350" y="340" as="sourcePoint" />
            <mxPoint x="400" y="290" as="targetPoint" />
            <Array as="points">
              <mxPoint x="80" y="200" />
            </Array>
          </mxGeometry>
        </mxCell>
        <mxCell id="as861CdX3eIc4DemPp-k-20" value="" style="endArrow=classic;html=1;rounded=0;exitX=0.25;exitY=1;exitDx=0;exitDy=0;entryX=1;entryY=0;entryDx=0;entryDy=0;" edge="1" parent="1" source="as861CdX3eIc4DemPp-k-3" target="as861CdX3eIc4DemPp-k-15">
          <mxGeometry width="50" height="50" relative="1" as="geometry">
            <mxPoint x="350" y="340" as="sourcePoint" />
            <mxPoint x="400" y="290" as="targetPoint" />
            <Array as="points" />
          </mxGeometry>
        </mxCell>
        <mxCell id="as861CdX3eIc4DemPp-k-21" value="" style="endArrow=classic;html=1;rounded=0;exitX=0.116;exitY=0;exitDx=0;exitDy=0;exitPerimeter=0;entryX=0;entryY=0.5;entryDx=0;entryDy=0;" edge="1" parent="1" source="as861CdX3eIc4DemPp-k-15" target="as861CdX3eIc4DemPp-k-1">
          <mxGeometry width="50" height="50" relative="1" as="geometry">
            <mxPoint x="350" y="340" as="sourcePoint" />
            <mxPoint x="400" y="290" as="targetPoint" />
            <Array as="points">
              <mxPoint x="-40" y="80" />
            </Array>
          </mxGeometry>
        </mxCell>
        <mxCell id="as861CdX3eIc4DemPp-k-22" value="" style="endArrow=classic;html=1;rounded=0;entryX=0.304;entryY=-0.017;entryDx=0;entryDy=0;entryPerimeter=0;exitX=0.351;exitY=1.033;exitDx=0;exitDy=0;exitPerimeter=0;" edge="1" parent="1" source="as861CdX3eIc4DemPp-k-3" target="as861CdX3eIc4DemPp-k-7">
          <mxGeometry width="50" height="50" relative="1" as="geometry">
            <mxPoint x="350" y="350" as="sourcePoint" />
            <mxPoint x="400" y="290" as="targetPoint" />
          </mxGeometry>
        </mxCell>
        <mxCell id="as861CdX3eIc4DemPp-k-23" value="" style="endArrow=classic;html=1;rounded=0;entryX=0.5;entryY=1;entryDx=0;entryDy=0;" edge="1" parent="1" source="as861CdX3eIc4DemPp-k-7" target="as861CdX3eIc4DemPp-k-3">
          <mxGeometry width="50" height="50" relative="1" as="geometry">
            <mxPoint x="350" y="340" as="sourcePoint" />
            <mxPoint x="400" y="290" as="targetPoint" />
          </mxGeometry>
        </mxCell>
        <mxCell id="as861CdX3eIc4DemPp-k-24" value="" style="endArrow=classic;html=1;rounded=0;exitX=0.5;exitY=1;exitDx=0;exitDy=0;entryX=0.5;entryY=0;entryDx=0;entryDy=0;" edge="1" parent="1" source="as861CdX3eIc4DemPp-k-7" target="as861CdX3eIc4DemPp-k-8">
          <mxGeometry width="50" height="50" relative="1" as="geometry">
            <mxPoint x="350" y="340" as="sourcePoint" />
            <mxPoint x="400" y="290" as="targetPoint" />
          </mxGeometry>
        </mxCell>
        <mxCell id="as861CdX3eIc4DemPp-k-25" value="" style="endArrow=classic;html=1;rounded=0;exitX=1;exitY=1;exitDx=0;exitDy=0;" edge="1" parent="1" source="as861CdX3eIc4DemPp-k-3">
          <mxGeometry width="50" height="50" relative="1" as="geometry">
            <mxPoint x="530" y="610" as="sourcePoint" />
            <mxPoint x="580" y="520" as="targetPoint" />
          </mxGeometry>
        </mxCell>
        <mxCell id="as861CdX3eIc4DemPp-k-26" value="" style="endArrow=classic;html=1;rounded=0;exitX=0.5;exitY=0;exitDx=0;exitDy=0;" edge="1" parent="1" source="as861CdX3eIc4DemPp-k-10">
          <mxGeometry width="50" height="50" relative="1" as="geometry">
            <mxPoint x="530" y="610" as="sourcePoint" />
            <mxPoint x="580" y="300" as="targetPoint" />
            <Array as="points">
              <mxPoint x="640" y="300" />
            </Array>
          </mxGeometry>
        </mxCell>
        <mxCell id="as861CdX3eIc4DemPp-k-27" value="" style="endArrow=classic;html=1;rounded=0;entryX=0.75;entryY=0;entryDx=0;entryDy=0;exitX=0.909;exitY=1.071;exitDx=0;exitDy=0;exitPerimeter=0;" edge="1" parent="1" source="as861CdX3eIc4DemPp-k-3" target="as861CdX3eIc4DemPp-k-11">
          <mxGeometry width="50" height="50" relative="1" as="geometry">
            <mxPoint x="540" y="350" as="sourcePoint" />
            <mxPoint x="580" y="560" as="targetPoint" />
          </mxGeometry>
        </mxCell>
        <mxCell id="as861CdX3eIc4DemPp-k-28" value="" style="endArrow=classic;html=1;rounded=0;exitX=0.5;exitY=1;exitDx=0;exitDy=0;entryX=0.5;entryY=0;entryDx=0;entryDy=0;" edge="1" parent="1" source="as861CdX3eIc4DemPp-k-11" target="as861CdX3eIc4DemPp-k-12">
          <mxGeometry width="50" height="50" relative="1" as="geometry">
            <mxPoint x="530" y="610" as="sourcePoint" />
            <mxPoint x="580" y="560" as="targetPoint" />
          </mxGeometry>
        </mxCell>
        <mxCell id="as861CdX3eIc4DemPp-k-29" value="" style="endArrow=classic;html=1;rounded=0;exitX=1;exitY=0.5;exitDx=0;exitDy=0;entryX=0.25;entryY=0;entryDx=0;entryDy=0;" edge="1" parent="1" source="as861CdX3eIc4DemPp-k-11" target="as861CdX3eIc4DemPp-k-14">
          <mxGeometry width="50" height="50" relative="1" as="geometry">
            <mxPoint x="530" y="610" as="sourcePoint" />
            <mxPoint x="760" y="730" as="targetPoint" />
            <Array as="points">
              <mxPoint x="780" y="730" />
            </Array>
          </mxGeometry>
        </mxCell>
        <mxCell id="as861CdX3eIc4DemPp-k-30" value="" style="endArrow=classic;html=1;rounded=0;exitX=0.75;exitY=0;exitDx=0;exitDy=0;entryX=1;entryY=0.5;entryDx=0;entryDy=0;" edge="1" parent="1" source="as861CdX3eIc4DemPp-k-14" target="as861CdX3eIc4DemPp-k-2">
          <mxGeometry width="50" height="50" relative="1" as="geometry">
            <mxPoint x="530" y="610" as="sourcePoint" />
            <mxPoint x="580" y="560" as="targetPoint" />
            <Array as="points">
              <mxPoint x="850" y="200" />
            </Array>
          </mxGeometry>
        </mxCell>
        <mxCell id="as861CdX3eIc4DemPp-k-31" value="Оформление заказа" style="text;html=1;align=center;verticalAlign=middle;resizable=0;points=[];autosize=1;strokeColor=none;fillColor=none;" vertex="1" parent="1">
          <mxGeometry x="390" y="118" width="140" height="30" as="geometry" />
        </mxCell>
        <mxCell id="as861CdX3eIc4DemPp-k-32" value="Передача данных о заказе" style="text;html=1;align=center;verticalAlign=middle;resizable=0;points=[];autosize=1;strokeColor=none;fillColor=none;" vertex="1" parent="1">
          <mxGeometry x="80" y="170" width="170" height="30" as="geometry" />
        </mxCell>
        <mxCell id="as861CdX3eIc4DemPp-k-33" value="Сохранение заказа" style="text;html=1;align=center;verticalAlign=middle;resizable=0;points=[];autosize=1;strokeColor=none;fillColor=none;" vertex="1" parent="1">
          <mxGeometry x="390" y="240" width="130" height="30" as="geometry" />
        </mxCell>
        <mxCell id="as861CdX3eIc4DemPp-k-34" value="Обработка оплаты" style="text;html=1;align=center;verticalAlign=middle;resizable=0;points=[];autosize=1;strokeColor=none;fillColor=none;" vertex="1" parent="1">
          <mxGeometry x="100" y="380" width="130" height="30" as="geometry" />
        </mxCell>
        <mxCell id="as861CdX3eIc4DemPp-k-35" value="Запрос наличия \&lt;div&gt;продуктов&lt;/div&gt;" style="text;html=1;align=center;verticalAlign=middle;resizable=0;points=[];autosize=1;strokeColor=none;fillColor=none;" vertex="1" parent="1">
          <mxGeometry x="245" y="405" width="120" height="40" as="geometry" />
        </mxCell>
        <mxCell id="as861CdX3eIc4DemPp-k-36" value="Данные о&amp;nbsp;&lt;div&gt;наличии продуктов&lt;/div&gt;" style="text;html=1;align=center;verticalAlign=middle;resizable=0;points=[];autosize=1;strokeColor=none;fillColor=none;" vertex="1" parent="1">
          <mxGeometry x="390" y="405" width="130" height="40" as="geometry" />
        </mxCell>
        <mxCell id="as861CdX3eIc4DemPp-k-37" value="Подтверждение оплаты" style="text;html=1;align=center;verticalAlign=middle;resizable=0;points=[];autosize=1;strokeColor=none;fillColor=none;" vertex="1" parent="1">
          <mxGeometry x="-50" y="50" width="160" height="30" as="geometry" />
        </mxCell>
        <mxCell id="as861CdX3eIc4DemPp-k-38" value="Проверка наличия&amp;nbsp;&lt;div&gt;продуктов&lt;/div&gt;" style="text;html=1;align=center;verticalAlign=middle;resizable=0;points=[];autosize=1;strokeColor=none;fillColor=none;" vertex="1" parent="1">
          <mxGeometry x="284" y="520" width="130" height="40" as="geometry" />
        </mxCell>
        <mxCell id="as861CdX3eIc4DemPp-k-39" value="Подтверждение&lt;div&gt;выполнения&lt;/div&gt;&lt;div&gt;заказа&lt;/div&gt;" style="text;html=1;align=center;verticalAlign=middle;resizable=0;points=[];autosize=1;strokeColor=none;fillColor=none;" vertex="1" parent="1">
          <mxGeometry x="630" y="395" width="110" height="60" as="geometry" />
        </mxCell>
        <mxCell id="as861CdX3eIc4DemPp-k-41" value="Передача&amp;nbsp;&lt;div&gt;заказа&amp;nbsp;&lt;/div&gt;&lt;div&gt;на выполнение&lt;/div&gt;" style="text;html=1;align=center;verticalAlign=middle;resizable=0;points=[];autosize=1;strokeColor=none;fillColor=none;" vertex="1" parent="1">
          <mxGeometry x="545" y="383" width="110" height="60" as="geometry" />
        </mxCell>
        <mxCell id="as861CdX3eIc4DemPp-k-42" value="Данные для&lt;div&gt;отчетов&lt;/div&gt;" style="text;html=1;align=center;verticalAlign=middle;resizable=0;points=[];autosize=1;strokeColor=none;fillColor=none;" vertex="1" parent="1">
          <mxGeometry x="470" y="585" width="90" height="40" as="geometry" />
        </mxCell>
        <mxCell id="as861CdX3eIc4DemPp-k-43" value="Сохранение отчетов" style="text;html=1;align=center;verticalAlign=middle;resizable=0;points=[];autosize=1;strokeColor=none;fillColor=none;" vertex="1" parent="1">
          <mxGeometry x="370" y="770" width="140" height="30" as="geometry" />
        </mxCell>
        <mxCell id="as861CdX3eIc4DemPp-k-44" value="Предоставление отчетов" style="text;html=1;align=center;verticalAlign=middle;resizable=0;points=[];autosize=1;strokeColor=none;fillColor=none;" vertex="1" parent="1">
          <mxGeometry x="605" y="700" width="160" height="30" as="geometry" />
        </mxCell>
        <mxCell id="as861CdX3eIc4DemPp-k-45" value="Корректировка заказа" style="text;html=1;align=center;verticalAlign=middle;resizable=0;points=[];autosize=1;strokeColor=none;fillColor=none;" vertex="1" parent="1">
          <mxGeometry x="610" y="170" width="150" height="30" as="geometry" />
        </mxCell>
      </root>
    </mxGraphModel>
  </diagram>
</mxfile>
